<svg width="513" height="343" viewBox="0 0 513 343" fill="none" xmlns="http://www.w3.org/2000/svg">
<g clip-path="url(#clip0_3_2332)">
<path d="M0 0.994141H513V342.994H0V0.994141Z" fill="white"/>
<path fill-rule="evenodd" clip-rule="evenodd" d="M78.3218 104.588L125.749 33.4473L138.229 41.7678L90.8025 112.908L78.3218 104.588ZM96.1069 116.444L143.534 45.304L156.014 53.6245L108.588 124.765L96.1069 116.444ZM113.892 128.301L161.319 57.1607L173.799 65.4812L126.373 136.622L113.892 128.301ZM339.17 278.486L386.597 207.346L399.077 215.666L351.651 286.806L339.17 278.486ZM356.955 290.343L404.382 219.202L416.862 227.523L369.436 298.663L356.955 290.343ZM434.647 239.379L387.221 310.52L374.74 302.199L422.167 231.059L434.647 239.379Z" fill="black"/>
<path fill-rule="evenodd" clip-rule="evenodd" d="M413.083 283.894L353.8 244.372L360.734 233.971L420.017 273.493L413.083 283.894Z" fill="white"/>
<path d="M327.625 219.41C353.818 180.121 343.201 127.036 303.911 100.843C264.622 74.65 211.537 85.267 185.344 124.557C159.151 163.846 169.768 216.931 209.058 243.124C248.348 269.317 301.432 258.7 327.625 219.41Z" fill="#CA163A"/>
<path d="M185.344 124.557C172.254 144.191 177.566 170.75 197.201 183.84C216.836 196.93 243.395 191.618 256.485 171.983C269.574 152.349 296.133 147.037 315.768 160.127C335.403 173.216 340.715 199.776 327.625 219.41C301.445 258.68 248.327 269.303 209.058 243.124C169.788 216.944 159.165 163.826 185.344 124.557Z" fill="#0E4896"/>
<path fill-rule="evenodd" clip-rule="evenodd" d="M387.22 33.4473L434.647 104.588L422.166 112.908L374.739 41.7677L387.22 33.4473ZM369.435 45.3044L416.863 116.444L404.382 124.765L356.954 53.6249L369.435 45.3044ZM351.65 57.161L399.077 128.301L386.596 136.621L339.169 65.4815L351.65 57.161ZM126.372 207.346L173.799 278.486L161.318 286.807L113.891 215.666L126.372 207.346ZM108.587 219.203L156.013 290.343L143.533 298.663L96.1058 227.523L108.587 219.203ZM90.8025 231.059L138.229 302.2L125.749 310.52L78.3218 239.38L90.8025 231.059Z" fill="black"/>
<path d="M117.192 264.845L134.977 252.989L117.192 264.845ZM357.266 104.796L378.039 90.947L357.266 104.796ZM395.824 79.0905L413.61 67.2339L395.824 79.0905Z" fill="black"/>
<path fill-rule="evenodd" clip-rule="evenodd" d="M417.076 72.4341L399.291 84.2907L392.358 73.89L410.143 62.0334L417.076 72.4341ZM381.506 96.1472L360.733 109.996L353.799 99.5953L374.572 85.7466L381.506 96.1472ZM138.444 258.19L120.659 270.046L113.725 259.645L131.51 247.789L138.444 258.19Z" fill="white"/>
</g>
<defs>
<clipPath id="clip0_3_2332">
<rect width="513" height="342" fill="white" transform="translate(0 0.994141)"/>
</clipPath>
</defs>
</svg>
