<svg width="513" height="343" viewBox="0 0 513 343" fill="none" xmlns="http://www.w3.org/2000/svg">
<g clip-path="url(#clip0_3_2180)">
<path d="M0 0.996948H513V342.99H0V0.996948Z" fill="white"/>
<path d="M513 0.996948V171.993H256.5L0 0.996948H513Z" fill="#0052B4"/>
<path d="M513 171.993V342.99H0L256.5 171.993H513Z" fill="#D80027"/>
<path d="M162.225 171.993L134.883 159.133L149.444 132.654L119.754 138.333L115.991 108.341L95.3112 130.399L74.6319 108.341L70.8695 138.333L41.1806 132.653L55.74 159.132L28.3987 171.993L55.74 184.853L41.1806 211.333L70.8715 205.654L74.6319 235.645L95.3112 213.587L115.991 235.645L119.754 205.654L149.443 211.334L134.882 184.855L162.225 171.993ZM21.8319 33.33L30.9307 46.0507L45.8387 41.3275L36.5526 53.9121L45.6514 66.6309L30.8134 61.6892L21.5273 74.2728L21.6446 58.6343L6.80664 53.6906L21.7157 48.9694L21.8319 33.33ZM21.8319 269.714L30.9307 282.435L45.8387 277.711L36.5526 290.296L45.6514 303.016L30.8134 298.073L21.5273 310.656L21.6446 295.018L6.80664 290.074L21.7157 285.353L21.8319 269.714ZM210.806 151.522L201.708 164.242L186.799 159.52L196.086 172.103L186.987 184.824L201.825 179.882L211.111 192.464L210.994 176.827L225.832 171.883L210.923 167.161L210.806 151.522Z" fill="#FFDA44"/>
</g>
<defs>
<clipPath id="clip0_3_2180">
<rect width="513" height="342" fill="white" transform="translate(0 0.99292)"/>
</clipPath>
</defs>
</svg>
