<svg width="709" height="292" viewBox="0 0 709 292" fill="none" xmlns="http://www.w3.org/2000/svg">
<path d="M77.6 5.60001H177.6V182.4H218.4V232.8H177.6V285.6H124.8V232.8H0V160L77.6 5.60001ZM45.6 175.2V182.4H124.8V32H117.6L45.6 175.2Z" fill="url(#paint0_linear_12787_519)"/>
<path d="M318.522 145.6C318.522 136.533 321.855 128.667 328.522 122C335.189 115.333 343.055 112 352.122 112C361.189 112 369.055 115.333 375.722 122C382.389 128.667 385.722 136.533 385.722 145.6C385.722 154.667 382.389 162.533 375.722 169.2C369.055 175.867 361.189 179.2 352.122 179.2C343.055 179.2 335.189 175.867 328.522 169.2C321.855 162.533 318.522 154.667 318.522 145.6ZM248.922 114.4C248.922 78.1333 257.989 50 276.122 30C294.522 10 319.855 0 352.122 0C384.389 0 409.589 10 427.722 30C446.122 50 455.322 78.1333 455.322 114.4V176.8C455.322 214.133 446.122 242.533 427.722 262C409.589 281.467 384.389 291.2 352.122 291.2C319.855 291.2 294.522 281.467 276.122 262C257.989 242.533 248.922 214.133 248.922 176.8V114.4ZM352.122 243.2C361.722 243.2 369.722 241.733 376.122 238.8C382.522 235.6 387.722 231.2 391.722 225.6C395.722 220 398.522 213.333 400.122 205.6C401.722 197.867 402.522 189.333 402.522 180V111.2C402.522 102.4 401.589 94.1333 399.722 86.4C397.855 78.6667 394.922 72 390.922 66.4C386.922 60.8 381.722 56.4 375.322 53.2C368.922 49.7333 361.189 48 352.122 48C343.055 48 335.322 49.7333 328.922 53.2C322.522 56.4 317.322 60.8 313.322 66.4C309.322 72 306.389 78.6667 304.522 86.4C302.655 94.1333 301.722 102.4 301.722 111.2V180C301.722 189.333 302.522 197.867 304.122 205.6C305.722 213.333 308.522 220 312.522 225.6C316.522 231.2 321.722 235.6 328.122 238.8C334.522 241.733 342.522 243.2 352.122 243.2Z" fill="url(#paint1_linear_12787_519)"/>
<path d="M567.444 5.60001H667.444V182.4H708.244V232.8H667.444V285.6H614.644V232.8H489.844V160L567.444 5.60001ZM535.444 175.2V182.4H614.644V32H607.444L535.444 175.2Z" fill="url(#paint2_linear_12787_519)"/>
<mask id="mask0_12787_519" style="mask-type:alpha" maskUnits="userSpaceOnUse" x="0" y="0" width="709" height="292">
<path d="M77.6 5.60001H177.6V182.4H218.4V232.8H177.6V285.6H124.8V232.8H0V160L77.6 5.60001ZM45.6 175.2V182.4H124.8V32H117.6L45.6 175.2Z" fill="white"/>
<path d="M318.522 145.6C318.522 136.533 321.855 128.667 328.522 122C335.189 115.333 343.055 112 352.122 112C361.189 112 369.055 115.333 375.722 122C382.389 128.667 385.722 136.533 385.722 145.6C385.722 154.667 382.389 162.533 375.722 169.2C369.055 175.867 361.189 179.2 352.122 179.2C343.055 179.2 335.189 175.867 328.522 169.2C321.855 162.533 318.522 154.667 318.522 145.6ZM248.922 114.4C248.922 78.1333 257.989 50 276.122 30C294.522 10 319.855 0 352.122 0C384.389 0 409.589 10 427.722 30C446.122 50 455.322 78.1333 455.322 114.4V176.8C455.322 214.133 446.122 242.533 427.722 262C409.589 281.467 384.389 291.2 352.122 291.2C319.855 291.2 294.522 281.467 276.122 262C257.989 242.533 248.922 214.133 248.922 176.8V114.4ZM352.122 243.2C361.722 243.2 369.722 241.733 376.122 238.8C382.522 235.6 387.722 231.2 391.722 225.6C395.722 220 398.522 213.333 400.122 205.6C401.722 197.867 402.522 189.333 402.522 180V111.2C402.522 102.4 401.589 94.1333 399.722 86.4C397.855 78.6667 394.922 72 390.922 66.4C386.922 60.8 381.722 56.4 375.322 53.2C368.922 49.7333 361.189 48 352.122 48C343.055 48 335.322 49.7333 328.922 53.2C322.522 56.4 317.322 60.8 313.322 66.4C309.322 72 306.389 78.6667 304.522 86.4C302.655 94.1333 301.722 102.4 301.722 111.2V180C301.722 189.333 302.522 197.867 304.122 205.6C305.722 213.333 308.522 220 312.522 225.6C316.522 231.2 321.722 235.6 328.122 238.8C334.522 241.733 342.522 243.2 352.122 243.2Z" fill="white"/>
<path d="M567.444 5.60001H667.444V182.4H708.244V232.8H667.444V285.6H614.644V232.8H489.844V160L567.444 5.60001ZM535.444 175.2V182.4H614.644V32H607.444L535.444 175.2Z" fill="white"/>
</mask>
<g mask="url(#mask0_12787_519)">
<rect width="6.99403" height="431.888" rx="3.49702" transform="matrix(0.706898 -0.707315 0.706898 0.707315 6 164.947)" fill="#D69F4D"/>
<rect width="8.13793" height="431.888" rx="4.06897" transform="matrix(0.706898 -0.707315 0.706898 0.707315 500.725 -95.2439)" fill="url(#paint3_linear_12787_519)"/>
<rect width="8.13793" height="431.888" rx="4.06897" transform="matrix(0.706898 -0.707315 0.706898 0.707315 464 37.7561)" fill="#9485FE" fill-opacity="0.56"/>
<rect width="2.70554" height="431.888" rx="1.35277" transform="matrix(0.706898 -0.707315 0.706898 0.707315 -10 -89.0864)" fill="#9485FE" fill-opacity="0.56"/>
<rect width="4.25924" height="319.473" rx="2.12962" transform="matrix(0.706898 -0.707315 0.706898 0.707315 523 180.013)" fill="#687EFF" fill-opacity="0.72"/>
<rect width="9.60361" height="431.888" rx="4.80181" transform="matrix(0.706898 -0.707315 0.706898 0.707315 47 -145.207)" fill="#1AFBFF" fill-opacity="0.71"/>
<rect width="18.7373" height="431.888" rx="9.36863" transform="matrix(0.706898 -0.707315 0.706898 0.707315 329 -137.747)" fill="#1AFBFF" fill-opacity="0.71"/>
<rect width="13.1762" height="431.888" rx="6.58811" transform="matrix(0.706898 -0.707315 0.706898 0.707315 79 206.32)" fill="#1AFBFF" fill-opacity="0.71"/>
<rect width="17.228" height="431.888" rx="8.61401" transform="matrix(0.706898 -0.707315 0.706898 0.707315 139 110.186)" fill="#5666C3"/>
<rect width="32.4944" height="431.888" rx="16.2472" transform="matrix(0.706898 -0.707315 0.706898 0.707315 152 -81.0161)" fill="url(#paint4_linear_12787_519)" fill-opacity="0.35"/>
<rect width="32.4944" height="431.888" rx="16.2472" transform="matrix(0.706898 -0.707315 0.706898 0.707315 16 -105.016)" fill="url(#paint5_linear_12787_519)" fill-opacity="0.35"/>
</g>
<defs>
<linearGradient id="paint0_linear_12787_519" x1="354.122" y1="0" x2="463" y2="383" gradientUnits="userSpaceOnUse">
<stop stop-color="#2A2A2A"/>
<stop offset="1" stop-color="#1D1D1D"/>
</linearGradient>
<linearGradient id="paint1_linear_12787_519" x1="354.122" y1="0" x2="463" y2="383" gradientUnits="userSpaceOnUse">
<stop stop-color="#2A2A2A"/>
<stop offset="1" stop-color="#1D1D1D"/>
</linearGradient>
<linearGradient id="paint2_linear_12787_519" x1="354.122" y1="0" x2="463" y2="383" gradientUnits="userSpaceOnUse">
<stop stop-color="#2A2A2A"/>
<stop offset="1" stop-color="#1D1D1D"/>
</linearGradient>
<linearGradient id="paint3_linear_12787_519" x1="19.9798" y1="528.585" x2="22.0196" y2="252.106" gradientUnits="userSpaceOnUse">
<stop stop-color="#D69F4D"/>
<stop offset="1" stop-color="#D69F4D" stop-opacity="0"/>
</linearGradient>
<linearGradient id="paint4_linear_12787_519" x1="15.8938" y1="427.332" x2="21.1956" y2="252.374" gradientUnits="userSpaceOnUse">
<stop stop-color="#3EACFE"/>
<stop offset="1" stop-color="#3EACFE" stop-opacity="0"/>
</linearGradient>
<linearGradient id="paint5_linear_12787_519" x1="15.8938" y1="427.332" x2="21.1956" y2="252.374" gradientUnits="userSpaceOnUse">
<stop stop-color="#D69F4D"/>
<stop offset="1" stop-color="#3EACFE" stop-opacity="0"/>
</linearGradient>
</defs>
</svg>
