<svg width="8" height="8" viewBox="0 0 8 8" fill="none" xmlns="http://www.w3.org/2000/svg">
<path d="M4.5 0.695557C4.5 0.419414 4.27614 0.195557 4 0.195557C3.72386 0.195557 3.5 0.419414 3.5 0.695557L4.5 0.695557ZM3.64645 7.65781C3.84171 7.85307 4.15829 7.85307 4.35355 7.65781L7.53553 4.47582C7.7308 4.28056 7.7308 3.96398 7.53553 3.76872C7.34027 3.57346 7.02369 3.57346 6.82843 3.76872L4 6.59715L1.17157 3.76872C0.976311 3.57346 0.659728 3.57346 0.464466 3.76872C0.269204 3.96398 0.269204 4.28056 0.464466 4.47583L3.64645 7.65781ZM3.5 0.695557L3.5 7.30425L4.5 7.30425L4.5 0.695557L3.5 0.695557Z" fill="#47D0FE"/>
</svg>
