<svg width="1050" height="208" viewBox="0 0 1050 208" fill="none" xmlns="http://www.w3.org/2000/svg">
<rect width="9.36563" height="431.888" rx="4.68281" transform="matrix(0.706898 -0.707315 0.706898 0.707315 191.885 62.0176)" fill="#D69F4D"/>
<rect width="8.13793" height="431.888" rx="4.06897" transform="matrix(0.706898 -0.707315 0.706898 0.707315 469.721 -227.244)" fill="url(#paint0_linear_1768_128)"/>
<rect width="14.6119" height="431.888" rx="7.30596" transform="matrix(0.706898 -0.707315 0.706898 0.707315 734 94.335)" fill="url(#paint1_linear_1768_128)" fill-opacity="0.32"/>
<rect width="8.13793" height="431.888" rx="4.06897" transform="matrix(0.706898 -0.707315 0.706898 0.707315 565 29.7559)" fill="#9485FE" fill-opacity="0.56"/>
<rect width="2.70554" height="431.888" rx="1.35277" transform="matrix(0.706898 -0.707315 0.706898 0.707315 0.99707 -250.086)" fill="#9485FE" fill-opacity="0.56"/>
<rect width="4.25924" height="319.473" rx="2.12962" transform="matrix(0.706898 -0.707315 0.706898 0.707315 265.841 -44.9873)" fill="#687EFF" fill-opacity="0.72"/>
<rect width="9.60361" height="431.888" rx="4.80181" transform="matrix(0.706898 -0.707315 0.706898 0.707315 61.9612 -229.207)" fill="#1AFBFF" fill-opacity="0.71"/>
<rect width="13.1762" height="431.888" rx="6.58811" transform="matrix(0.706898 -0.707315 0.706898 0.707315 216.87 133.32)" fill="#1AFBFF" fill-opacity="0.71"/>
<rect width="17.228" height="431.888" rx="8.61401" transform="matrix(0.706898 -0.707315 0.706898 0.707315 37.9753 -175.814)" fill="#53D0F1" fill-opacity="0.17"/>
<rect width="32.4944" height="431.888" rx="16.2472" transform="matrix(0.706898 -0.707315 0.706898 0.707315 156.905 -196.016)" fill="url(#paint2_linear_1768_128)" fill-opacity="0.35"/>
<defs>
<linearGradient id="paint0_linear_1768_128" x1="19.9798" y1="528.585" x2="22.0196" y2="252.106" gradientUnits="userSpaceOnUse">
<stop stop-color="#D69F4D"/>
<stop offset="1" stop-color="#D69F4D" stop-opacity="0"/>
</linearGradient>
<linearGradient id="paint1_linear_1768_128" x1="7.30596" y1="-2.9809e-08" x2="-7.47483" y2="221.085" gradientUnits="userSpaceOnUse">
<stop stop-color="#53D0F1"/>
<stop offset="1" stop-color="#53D0F1" stop-opacity="0"/>
</linearGradient>
<linearGradient id="paint2_linear_1768_128" x1="15.8938" y1="427.332" x2="21.1956" y2="252.374" gradientUnits="userSpaceOnUse">
<stop stop-color="#3EACFE"/>
<stop offset="1" stop-color="#3EACFE" stop-opacity="0"/>
</linearGradient>
</defs>
</svg>
