<?xml version="1.0" standalone="no"?>
<!DOCTYPE svg PUBLIC "-//W3C//DTD SVG 20010904//EN"
 "http://www.w3.org/TR/2001/REC-SVG-20010904/DTD/svg10.dtd">
<svg version="1.0" xmlns="http://www.w3.org/2000/svg"
 width="656.000000pt" height="656.000000pt" viewBox="0 0 656.000000 656.000000"
 preserveAspectRatio="xMidYMid meet">
<metadata>
Created by potrace 1.14, written by Peter Selinger 2001-2017
</metadata>
<g transform="translate(0.000000,656.000000) scale(0.100000,-0.100000)"
fill="#000000" stroke="none">
<path d="M640 4078 c1 -2649 -1 -2546 49 -2696 23 -70 100 -222 113 -222 4 0
8 -7 8 -15 0 -8 39 -54 87 -103 117 -119 222 -188 353 -234 164 -58 139 -57
1248 -57 l1022 -1 1 33 c1 64 1 172 -1 182 -1 6 -1 15 0 20 3 17 1 99 -3 120
-2 11 -1 29 3 40 4 11 4 29 0 41 -5 11 -5 27 0 34 4 7 4 26 0 41 -5 16 -5 31
0 34 4 3 4 21 0 40 -4 19 -5 35 -1 35 3 0 6 38 6 85 0 47 -4 85 -8 85 -5 0 -5
4 -2 10 6 9 9 94 5 115 -1 6 -1 15 0 20 3 13 3 167 0 180 -1 6 -1 15 0 20 4
21 1 95 -4 104 -4 5 -2 12 4 16 6 4 8 10 6 14 -3 4 -5 26 -5 49 -2 125 -2 122
16 123 10 0 337 1 726 2 523 2 710 5 715 14 9 15 8 1994 -2 2056 -18 115 -38
183 -86 283 -71 148 -183 278 -322 371 -74 50 -220 114 -293 129 -70 14 -93
18 -115 20 -14 1 -488 2 -1054 3 -566 0 -1027 3 -1024 7 3 3 2 21 -2 40 -4 18
-5 34 -1 34 3 0 5 19 3 42 -2 37 -2 63 -1 121 0 6 0 26 0 42 -1 55 -1 159 0
200 1 6 -1 24 -4 42 -2 17 -1 37 3 44 4 6 4 25 0 40 -5 16 -6 29 -2 29 8 0 6
115 -2 135 -2 7 -2 16 1 19 7 7 7 105 0 112 -3 3 -2 16 3 29 5 13 7 25 5 27
-8 8 -12 77 -5 89 4 6 4 25 0 40 -5 16 -6 29 -2 29 4 0 6 21 5 47 -3 55 -3 87
-2 161 1 29 -1 56 -4 58 -3 3 -2 18 3 32 4 15 3 37 -1 50 l-8 22 -716 0 -715
0 0 -2482z m2882 -538 c-3 -70 -3 -90 1 -188 1 -34 -1 -62 -5 -62 -4 0 -3 -13
2 -29 4 -15 4 -34 0 -41 -4 -7 -4 -25 0 -40 4 -15 4 -33 0 -41 -5 -7 -5 -20
-1 -28 5 -8 6 -26 2 -40 -3 -14 -5 -37 -4 -51 4 -35 5 -103 3 -115 -1 -5 -1
-14 0 -20 5 -22 3 -163 -3 -172 -3 -5 -2 -15 3 -22 4 -8 4 -27 0 -42 -5 -16
-6 -29 -2 -29 4 0 6 -19 4 -42 -1 -24 -3 -50 -3 -58 1 -8 1 -52 2 -97 1 -44
-1 -85 -4 -90 -3 -5 -2 -15 3 -22 4 -8 4 -27 0 -42 -5 -17 -5 -31 1 -34 5 -4
5 -13 0 -24 -9 -16 -56 -17 -723 -16 l-713 0 -6 38 c-3 21 -3 40 1 42 5 3 4
21 0 40 -4 19 -5 35 -1 35 3 0 5 21 4 47 -2 27 -3 62 -3 78 0 50 -1 139 -1
150 0 6 0 24 0 40 1 17 1 37 0 45 0 8 1 38 2 67 2 29 0 55 -3 58 -3 3 -2 23 2
45 4 22 4 40 0 40 -4 0 -5 15 -1 33 5 18 5 41 1 52 -4 11 -6 23 -3 27 6 11 8
117 1 123 -3 3 -2 23 2 45 4 22 4 40 0 40 -4 0 -5 15 -1 33 5 18 5 41 1 52 -4
11 -4 29 0 40 4 10 4 34 0 52 -4 17 -5 35 -2 38 8 7 5 113 -3 125 -4 6 -1 10
5 10 6 0 9 3 7 8 -3 4 320 7 716 7 l722 0 -3 -65z"/>
<path d="M4466 1510 c-2 -5 0 -1440 3 -1450 2 -10 1431 -5 1432 5 1 6 2 334 3
730 l1 721 -718 0 c-395 -1 -720 -3 -721 -6z"/>
</g>
</svg>
